<svg width="373" height="475" viewBox="0 0 373 475" fill="none" xmlns="http://www.w3.org/2000/svg">
<g clip-path="url(#clip0_380_88)">
<path d="M239.2 474.43C237.36 474.43 235.57 473.76 234.17 472.54C190.48 434.34 140.15 388.3 98.0902 336.44C52.9002 280.7 23.4702 226.04 8.13021 169.32C-2.10979 131.47 -2.66979 100.43 6.42021 74.4195C17.6902 42.2095 47.7202 19.2096 81.1702 17.1996C107.41 15.5996 130.58 31.2396 148.16 62.3796C152.31 69.7196 155.67 77.0796 158.32 83.6796C160.6 77.1896 163.53 69.9096 167.25 62.4196C183.25 30.2196 206.25 9.75955 233.78 3.25955C261.35 -3.25045 286.27 -0.000447273 307.84 12.8796C326.45 24.0096 342.27 42.1696 354.86 66.8696C375.77 107.91 378.61 160.46 362.86 214.84L361.62 219.14C347.55 267.88 314.6 382.02 245.25 471.47C243.96 473.13 242.04 474.19 239.95 474.39C239.7 474.41 239.46 474.43 239.21 474.43H239.2ZM84.7302 32.3696C83.8602 32.3696 82.9802 32.3996 82.0902 32.4496C54.7102 34.0996 30.1002 52.9995 20.8502 79.4595C12.8102 102.47 13.4702 130.55 22.8802 165.33C37.6602 219.95 66.1402 272.77 109.97 326.81C149.36 375.38 196.37 418.96 238.09 455.64C302.31 369.49 333.45 261.62 346.94 214.9L348.19 210.59C362.85 159.95 360.39 111.37 341.25 73.8095C317.04 26.2995 282.07 7.56955 237.3 18.1296C214.11 23.5996 195.21 40.6795 181.12 68.8795C170.24 90.6595 166.54 111.12 166.5 111.33C165.87 114.9 162.81 117.54 159.19 117.64C155.54 117.75 152.37 115.28 151.54 111.75C151.35 110.95 132.26 32.3696 84.7502 32.3696H84.7302Z" fill="#D82916"/>
</g>
<defs>
<clipPath id="clip0_380_88">
<rect width="372.9" height="474.43" fill="white"/>
</clipPath>
</defs>
</svg>
