<svg width="445" height="483" viewBox="0 0 445 483" fill="none" xmlns="http://www.w3.org/2000/svg">
<g clip-path="url(#clip0_380_110)">
<path d="M285.514 431.508C284.328 431.861 283.031 431.872 281.782 431.485C239.937 418.397 198.035 396.821 160.619 369.091C118.767 338.062 84.2741 301.01 58.101 258.966C34.8017 221.539 24.8701 188.468 27.7283 157.867C29.4558 139.332 37.051 121.256 49.1109 106.96C62.0295 91.6495 78.9392 82.3678 96.7149 80.8372C129.953 77.9757 156.944 99.3943 179.542 125.84C177.392 99.6919 184.972 73.3248 201.2 53.745C224.561 25.5606 265.385 14.0379 298.266 26.3412C324.943 36.3238 347.128 61.5855 357.606 93.9108C366.94 122.716 366.911 153.59 365.484 182.668C363.555 221.907 361.115 257.551 350.746 296.364C339.559 338.234 319.967 380.321 289.076 428.819C288.225 430.153 286.94 431.084 285.506 431.51L285.514 431.508ZM88.4059 95.3689C65.8384 102.081 43.5845 125.509 40.447 159.043C37.8607 186.774 47.177 217.249 68.9437 252.22C116.163 328.074 195.136 389.683 280.932 417.803C309.578 372.196 327.879 332.453 338.401 293.072C348.442 255.473 350.834 220.549 352.72 182.045C354.091 154.187 354.159 124.704 345.456 97.8465C336.165 69.1859 316.852 46.9218 293.785 38.2879C265.84 27.8281 231.036 37.7433 211.042 61.8766C191.753 85.1553 186.56 119.579 197.812 149.582C198.936 152.568 197.674 155.924 194.871 157.437C192.059 158.953 188.564 158.171 186.684 155.602C162.902 123.182 133.75 90.4496 97.8086 93.5485C94.7049 93.818 91.5451 94.4266 88.4036 95.3609L88.4059 95.3689Z" fill="#D82916"/>
<path d="M257.279 402.094C256.069 402.454 254.736 402.458 253.448 402.031C250.12 400.929 248.309 397.363 249.377 394.03L295.353 250.748C270.304 288.123 249.83 328.329 234.294 370.709C233.105 373.956 229.549 375.667 226.273 374.567C222.992 373.477 221.182 369.972 222.188 366.667C237.545 316 255.464 265.679 275.639 216.517C248.417 254.067 224.64 294.079 204.669 335.948C203.26 338.894 199.851 340.308 196.771 339.22C193.691 338.132 191.925 334.892 192.691 331.719C201.868 293.505 213.983 255.986 228.871 219.611C203.382 257.413 180.886 297.244 161.699 338.584C160.244 341.727 156.544 343.132 153.363 341.76C150.181 340.388 148.68 336.721 149.984 333.51L206.203 194.632C180.373 231.464 159.049 271.217 142.573 313.283C141.334 316.449 137.836 318.091 134.612 317.019C131.389 315.947 129.567 312.55 130.469 309.276C138.006 281.884 147.063 254.939 157.585 228.577L117.959 290.531C116.267 293.169 112.918 294.2 110.037 292.957C107.155 291.714 105.616 288.563 106.388 285.528C111.347 266.04 117.266 246.816 124.114 227.926L102.293 262.755C100.654 265.369 97.3785 266.439 94.5092 265.297C91.6398 264.154 90.0071 261.128 90.6173 258.106C94.2895 240.038 99.0004 222.237 104.713 204.782L89.0777 229.876C87.4356 232.508 84.1279 233.588 81.2515 232.421C78.375 231.255 76.7543 228.182 77.4126 225.145C79.4156 215.983 81.7547 206.895 84.4155 197.921L72.1244 217.864C70.3527 220.735 66.648 221.741 63.6718 220.151C60.6955 218.562 59.4744 214.925 60.8823 211.857L82.5961 164.703C76.6101 171.119 70.3054 177.256 63.6875 183.102C61.5461 184.994 58.4385 185.221 56.0673 183.73L52.7028 189.34C50.9421 192.278 47.1814 193.3 44.1748 191.668C41.1682 190.035 39.9841 186.317 41.4977 183.253C47.8944 170.239 55.3344 157.831 63.7544 146.107L88.078 105.558C89.8387 102.62 93.5995 101.598 96.606 103.231C99.6126 104.864 100.794 108.573 99.2911 111.643L97.0988 116.121C97.2274 116.231 97.356 116.341 97.479 116.461C99.5142 118.435 99.9499 121.425 98.7751 123.84C102.564 118.19 106.131 112.38 109.478 106.418C111.153 103.427 114.891 102.298 117.951 103.846C121.005 105.404 122.283 109.084 120.854 112.202L115.883 122.996C117.883 121.129 120.942 120.707 123.426 122.138C126.424 123.861 127.498 127.646 125.863 130.685C116.47 148.171 108.488 166.353 101.994 185.051L138.308 126.775C140.132 123.845 143.951 122.901 146.933 124.628C149.915 126.356 150.989 130.141 149.344 133.175C134.054 161.512 121.793 191.293 112.726 222.076L163.778 140.585C165.609 137.653 169.449 136.72 172.428 138.466C175.41 140.219 176.453 144.022 174.788 147.045C157.379 178.609 142.858 211.703 131.403 245.836L204.145 132.101C206.008 129.185 209.865 128.282 212.832 130.075C215.799 131.868 216.797 135.693 215.074 138.697C200.521 164.175 187.475 190.468 176 217.436C190.605 193.572 206.954 170.759 224.964 149.133C226.974 146.713 230.454 146.123 233.157 147.733C235.86 149.343 236.977 152.688 235.794 155.602L203.736 234.79C219.904 209.172 237.402 184.386 256.134 160.585C258.166 158.002 261.829 157.384 264.596 159.149C267.363 160.914 268.34 164.493 266.847 167.421C248.976 202.478 233.849 238.932 221.628 276.326C243.403 238.644 268.338 202.793 296.136 169.263C298.172 166.81 301.715 166.227 304.421 167.906C307.135 169.582 308.189 173.007 306.884 175.922C293.32 206.369 280.614 237.381 268.851 268.748C280.903 248.589 294.193 229.159 308.681 210.533C310.579 208.086 313.965 207.358 316.705 208.8C319.446 210.242 320.755 213.443 319.809 216.391L292.792 300.589C298.595 290.89 304.747 281.365 311.217 272.06C310.971 270.234 311.507 268.314 312.862 266.856L322.827 256.102C325.139 253.611 328.998 253.36 331.609 255.538C334.219 257.716 334.656 261.56 332.611 264.277C301.963 304.912 278.048 349.914 261.516 398.037C260.819 400.065 259.2 401.514 257.285 402.083L257.279 402.094ZM86.4961 137.723L82.8948 145.059C88.1615 138.717 93.1269 132.125 97.7695 125.298C97.7173 125.357 97.6571 125.419 97.6049 125.478C93.7603 129.445 90.0547 133.527 86.4937 137.715L86.4961 137.723Z" fill="#D82916"/>
<path d="M301.646 198.142C300.516 198.478 299.285 198.504 298.066 198.16C294.681 197.189 292.721 193.65 293.695 190.267L309.779 134.391C303.133 141.901 295.85 148.825 288.052 155.014C285.814 156.786 282.671 156.867 280.353 155.203C278.036 153.54 277.1 150.541 278.072 147.856L286.314 125.004C278.185 136.241 269.612 147.156 260.647 157.692C258.726 159.945 255.499 160.591 252.864 159.239C250.229 157.888 248.868 154.894 249.584 152.023C253.02 138.235 257.159 124.612 261.994 111.244C251.025 124.136 239.023 136.193 225.147 146.437C222.759 148.202 219.472 148.09 217.216 146.164C214.951 144.241 214.317 141.022 215.679 138.387L247.598 76.4504C233.333 91.6033 219.757 107.431 207.008 123.78C204.956 126.413 201.23 127.024 198.452 125.192C195.674 123.36 194.769 119.7 196.378 116.781L234.405 47.9568C236.112 44.8696 239.993 43.7504 243.082 45.4548C246.171 47.1591 247.291 51.0437 245.581 54.1229L237.789 68.2221C247.442 57.9442 257.396 47.9774 267.627 38.3552C269.89 36.2268 273.365 36.0301 275.85 37.9053C278.333 39.7724 279.105 43.1593 277.686 45.9255L242.901 113.42C258.009 97.4059 271.054 79.2348 283.813 61.4535C285.762 58.7388 289.48 57.9818 292.335 59.7209C295.19 61.4599 296.214 65.1114 294.683 68.0854C285.362 86.1948 277.424 105.026 270.947 124.337C283.639 107.386 295.3 89.6355 305.771 71.2885C307.411 68.4132 310.988 67.271 313.997 68.6503C317.007 70.0297 318.456 73.494 317.332 76.6081L299.095 127.181C307.523 117.86 314.866 107.528 320.819 96.5728C322.374 93.7053 325.837 92.4748 328.854 93.7038C331.871 94.9327 333.474 98.2382 332.574 101.373L305.977 193.786C305.35 195.959 303.673 197.539 301.656 198.147L301.646 198.142Z" fill="#D82916"/>
</g>
<defs>
<clipPath id="clip0_380_110">
<rect width="343" height="401" fill="white" transform="translate(0.959961 97.7773) rotate(-16.5628)"/>
</clipPath>
</defs>
</svg>
