<svg width="343" height="378" viewBox="0 0 343 378" fill="none" xmlns="http://www.w3.org/2000/svg">
<g clip-path="url(#clip0_380_90)">
<path d="M134.356 337.878C133.323 337.33 132.517 336.421 132.094 335.318C118.935 300.844 104.383 259.987 96.2102 218.324C87.4351 173.55 87.1904 134.078 95.4736 97.6454C100.999 73.3327 109.933 55.7294 122.788 43.8265C138.715 29.0902 162.435 25.1165 181.823 33.9527C197.038 40.8712 205.392 56.5595 205.989 79.2896C206.133 84.6491 205.827 89.7846 205.349 94.2816C208.564 91.3151 212.378 88.0985 216.7 84.9993C235.28 71.6778 254.295 67.0365 271.695 71.5868C289.12 76.1434 302.149 85.3931 310.427 99.0544C317.564 110.851 321.039 125.765 320.752 143.391C320.269 172.674 306.207 203.04 281.158 228.895L279.18 230.942C256.756 254.129 204.241 308.43 138.636 338.018C137.417 338.566 136.023 338.59 134.789 338.079C134.643 338.016 134.502 337.956 134.362 337.881L134.356 337.878ZM179.302 43.5349C178.814 43.2757 178.311 43.0304 177.796 42.7933C161.925 35.5633 142.471 38.8485 129.392 50.9566C118.02 61.4871 110.024 77.4574 104.947 99.7983C96.9752 134.884 97.2345 173.04 105.752 216.454C113.406 255.473 126.826 293.959 139.331 326.992C201.071 297.73 250.701 246.412 272.198 224.186L274.184 222.138C297.507 198.058 310.599 170.036 311.039 143.235C311.596 109.334 297.535 88.3943 269.242 80.9886C254.586 77.1527 238.882 81.1167 222.565 92.7602C209.965 101.754 201.791 112.145 201.706 112.251C200.288 114.068 197.783 114.64 195.72 113.618C193.637 112.592 192.592 110.26 193.178 108.03C193.309 107.524 205.999 57.6948 179.314 43.5408L179.302 43.5349Z" fill="#D82916"/>
</g>
<defs>
<clipPath id="clip0_380_90">
<rect width="237.091" height="301.675" fill="white" transform="translate(141.354 0.109375) rotate(27.9412)"/>
</clipPath>
</defs>
</svg>
