<svg width="266" height="286" viewBox="0 0 266 286" fill="none" xmlns="http://www.w3.org/2000/svg">
<path d="M61.9754 282.34C61.383 282.1 60.8446 281.727 60.4056 281.245C42.8128 261.981 28.7881 238.097 18.7148 210.255C9.93388 185.991 4.10385 158.616 1.38673 128.886C-0.908923 103.836 -1.72926 71.4706 12.4163 43.3297C19.2127 29.8131 29.9475 18.0946 42.6521 10.3327C56.5261 1.85568 71.3253 -1.17778 85.4533 1.55702C95.8366 3.56717 105.86 8.80948 114.437 16.701C122.331 23.9679 128.851 33.2789 133.29 43.6395C139.319 57.7094 142.234 73.5867 142.411 93.9852C153.814 80.7518 165.776 71.4768 178.746 65.7817C198.858 56.9478 221.263 57.9671 237.217 68.4381C247.461 75.1624 255.141 85.422 260.028 98.9368C264.04 110.02 266.077 123.259 265.916 137.233C265.65 160.917 260.448 183.183 250.872 201.622C232.994 236.071 201.101 256.667 177.496 267.883C160.787 275.822 145.144 280.698 128.265 283.226C108.922 286.126 87.5788 285.922 63.0134 282.604C62.6508 282.557 62.3024 282.46 61.9745 282.327L61.9754 282.34ZM92.0759 12.6825C89.3517 11.5806 86.5628 10.745 83.7442 10.1959C71.781 7.8764 59.122 10.519 47.1433 17.8406C35.8288 24.7528 26.2654 35.2034 20.2024 47.2564C7.06941 73.3809 7.89429 104.137 10.0787 128.016C12.7314 156.992 18.3961 183.635 26.9212 207.193C36.3987 233.387 49.4734 255.893 65.7996 274.102C88.8774 277.111 108.931 277.248 127.042 274.533C143.043 272.135 157.906 267.498 173.816 259.938C196.2 249.305 226.392 229.856 243.138 197.598C252.069 180.386 256.929 159.498 257.182 137.202C257.335 123.736 255.225 90.7991 232.409 75.8232C218.877 66.9416 199.63 66.1795 182.182 73.8453C167.563 80.2671 154.198 91.8856 141.317 109.367C140.172 110.919 138.163 111.549 136.356 110.918C134.546 110.279 133.372 108.542 133.455 106.616C134.495 81.1551 131.969 62.823 125.266 47.1801C118.291 30.8988 106.015 18.3201 92.0759 12.6825Z" fill="#D82916"/>
</svg>
