<svg width="368" height="373" viewBox="0 0 368 373" fill="none" xmlns="http://www.w3.org/2000/svg">
<g clip-path="url(#clip0_381_114)">
<path d="M502.057 281.292C501.316 281.443 500.528 281.437 499.742 281.236C468.714 273.418 439.951 258.058 415.973 236.589C406.75 240.939 395.796 243.841 382.901 245.386C355.996 248.606 327.393 245.769 297.347 236.929C294.33 244.2 291.196 251.405 287.951 258.542C274.685 287.677 255.073 322.606 220.912 334.146C198.237 341.811 171.461 336.917 152.683 321.679C148.169 318.015 144.124 313.761 140.611 309.072C134.457 312.982 127.861 316.329 120.918 319.037C97.5781 328.147 72.3305 329.26 49.8249 322.17C47.0795 321.304 45.5556 318.379 46.4209 315.634C47.2863 312.889 50.2112 311.365 52.9566 312.23C73.2082 318.612 96.0007 317.577 117.137 309.328C123.421 306.873 129.394 303.849 134.964 300.315C127.663 287.15 124.127 271.766 125.493 256.87C126.84 242.152 136.693 227.232 148.926 221.396C156.891 217.595 165.103 218.066 172.054 222.714C187.398 232.974 185.332 256.325 175.591 273.087C168.914 284.58 159.886 294.751 149.137 303.082C152.092 306.981 155.489 310.518 159.261 313.582C175.333 326.617 198.229 330.815 217.59 324.266C247.961 314.003 266.087 281.438 278.483 254.214C281.558 247.467 284.528 240.65 287.383 233.781C266.074 226.655 244.07 216.573 221.453 203.561C206.11 194.735 188.676 183.614 175.683 168.042C161.372 150.888 154.612 130.325 157.136 111.628C160.132 89.3888 177.479 71.1543 197.491 69.2189C206.446 68.3548 215.265 70.943 222.854 75.3072C226.622 65.0425 232.509 55.4024 239.907 49.7478C258.681 35.3975 282.271 32.3405 300 41.974C317.634 51.5504 330.17 72.4152 332.717 96.4368C334.95 117.495 330.095 138.75 324.519 158.586C317.991 181.798 310.218 204.777 301.306 227.224C329.615 235.431 356.49 238.057 381.688 235.033C391.709 233.832 400.371 231.769 407.788 228.797C399.828 220.812 390.486 209.986 386.822 196.188C382.747 180.824 387.68 164.683 398.817 156.928C405.866 152.019 415.124 150.864 424.216 153.765C434.797 157.141 443.595 165.407 447.156 175.335C453.196 192.134 446.798 213.161 431.611 226.472C429.717 228.133 427.703 229.686 425.577 231.137C447.764 250.279 474.05 264.009 502.311 271.133C505.1 271.836 506.794 274.671 506.09 277.46C505.581 279.464 503.976 280.906 502.079 281.294L502.057 281.292ZM157.086 229.541C155.877 229.788 154.648 230.214 153.392 230.811C144.559 235.027 136.852 246.897 135.851 257.828C134.713 270.297 137.552 283.157 143.487 294.277C152.853 286.877 160.719 277.932 166.566 267.861C172.868 257.015 176.932 238.533 166.247 231.384C163.417 229.492 160.346 228.874 157.093 229.54L157.086 229.541ZM410.65 162.95C408.685 163.352 406.673 164.133 404.748 165.473C396.261 171.385 394.356 184.053 396.869 193.513C399.996 205.298 408.631 214.982 415.802 222.104C416.397 222.7 417.004 223.285 417.604 223.873C420.175 222.282 422.546 220.537 424.718 218.631C436.764 208.072 441.947 191.72 437.325 178.856C434.832 171.911 428.584 166.103 421.019 163.69C418.636 162.932 414.758 162.11 410.643 162.952L410.65 162.95ZM195.724 80.0139C181.775 82.8671 169.632 96.8007 167.438 113.029C165.306 128.84 171.22 146.459 183.661 161.378C195.603 175.696 212.079 186.178 226.624 194.541C248.87 207.336 270.454 217.205 291.295 224.12C300.2 201.773 307.957 178.887 314.462 155.764C320.583 133.999 324.261 115.769 322.326 97.5319C320.134 76.8762 309.662 59.0972 295.003 51.1328C280.878 43.4629 261.72 46.1703 246.208 58.0295C239.725 62.982 234.695 72.2867 231.691 81.6574C239.194 88.2247 244.35 96.2814 245.371 103.075C246.558 110.955 242.351 116.862 234.394 118.489C228.227 119.75 222.955 117.014 220.29 111.163C217.562 105.178 217.586 95.665 219.791 85.6853C213.552 81.5879 206.035 78.8657 198.472 79.5981C197.551 79.689 196.633 79.8281 195.724 80.0139ZM228.96 93.6241C228.235 99.1667 228.45 103.96 229.772 106.85C230.516 108.48 231.058 108.543 232.307 108.287C235.073 107.722 235.388 106.745 235.074 104.631C234.605 101.483 232.375 97.4917 228.967 93.6228L228.96 93.6241Z" fill="#D82916"/>
</g>
<defs>
<clipPath id="clip0_381_114">
<rect width="459.162" height="286.048" fill="white" transform="translate(0 92.0098) rotate(-11.5595)"/>
</clipPath>
</defs>
</svg>
